<mxfile host="app.diagrams.net" agent="Mozilla/5.0 (Macintosh; Intel Mac OS X 10_15_7) AppleWebKit/537.36 (KHTML, like Gecko) Chrome/127.0.0.0 Safari/537.36" version="24.7.10">
  <diagram name="Page-1" id="D6rCWgWzXRwU0HOrijuy">
    <mxGraphModel dx="954" dy="505" grid="1" gridSize="10" guides="1" tooltips="1" connect="1" arrows="1" fold="1" page="1" pageScale="1" pageWidth="827" pageHeight="1169" math="0" shadow="0">
      <root>
        <mxCell id="0" />
        <mxCell id="1" parent="0" />
        <mxCell id="bnOTAv7IadEaedXV0A4L-1" value="" style="rounded=0;whiteSpace=wrap;html=1;fillColor=#eeeeee;strokeColor=#36393d;" parent="1" vertex="1">
          <mxGeometry x="100" y="170" width="690" height="460" as="geometry" />
        </mxCell>
        <mxCell id="bnOTAv7IadEaedXV0A4L-3" value="" style="rounded=1;whiteSpace=wrap;html=1;fillColor=#f5f5f5;strokeColor=#666666;gradientColor=#b3b3b3;" parent="1" vertex="1">
          <mxGeometry x="382.5" y="230" width="125" height="120" as="geometry" />
        </mxCell>
        <mxCell id="bnOTAv7IadEaedXV0A4L-2" value="&lt;font style=&quot;font-size: 18px;&quot;&gt;kafka-stm&lt;/font&gt;" style="text;html=1;align=center;verticalAlign=middle;whiteSpace=wrap;rounded=0;" parent="1" vertex="1">
          <mxGeometry x="385" y="200" width="120" height="30" as="geometry" />
        </mxCell>
        <mxCell id="bnOTAv7IadEaedXV0A4L-17" value="" style="sketch=0;points=[[0,0,0],[0.25,0,0],[0.5,0,0],[0.75,0,0],[1,0,0],[0,1,0],[0.25,1,0],[0.5,1,0],[0.75,1,0],[1,1,0],[0,0.25,0],[0,0.5,0],[0,0.75,0],[1,0.25,0],[1,0.5,0],[1,0.75,0]];outlineConnect=0;fontColor=#232F3E;fillColor=#8C4FFF;strokeColor=#ffffff;dashed=0;verticalLabelPosition=bottom;verticalAlign=top;align=center;html=1;fontSize=12;fontStyle=0;aspect=fixed;shape=mxgraph.aws4.resourceIcon;resIcon=mxgraph.aws4.managed_streaming_for_kafka;" parent="1" vertex="1">
          <mxGeometry x="406" y="251" width="78" height="78" as="geometry" />
        </mxCell>
        <mxCell id="bnOTAv7IadEaedXV0A4L-18" value="" style="whiteSpace=wrap;html=1;aspect=fixed;fillColor=#d5e8d4;strokeColor=#82b366;" parent="1" vertex="1">
          <mxGeometry x="140" y="435" width="150" height="150" as="geometry" />
        </mxCell>
        <mxCell id="bnOTAv7IadEaedXV0A4L-19" value="" style="image;aspect=fixed;perimeter=ellipsePerimeter;html=1;align=center;shadow=0;dashed=0;spacingTop=3;image=img/lib/active_directory/server_farm.svg;" parent="1" vertex="1">
          <mxGeometry x="167.5" y="471" width="95" height="95" as="geometry" />
        </mxCell>
        <mxCell id="bnOTAv7IadEaedXV0A4L-20" value="&lt;font style=&quot;font-size: 13px;&quot;&gt;RBX: 3 Brokers&lt;/font&gt;" style="text;html=1;align=center;verticalAlign=middle;whiteSpace=wrap;rounded=0;" parent="1" vertex="1">
          <mxGeometry x="167.5" y="435" width="97.5" height="30" as="geometry" />
        </mxCell>
        <mxCell id="bnOTAv7IadEaedXV0A4L-21" value="" style="whiteSpace=wrap;html=1;aspect=fixed;fillColor=#dae8fc;strokeColor=#6c8ebf;" parent="1" vertex="1">
          <mxGeometry x="610" y="435" width="150" height="150" as="geometry" />
        </mxCell>
        <mxCell id="bnOTAv7IadEaedXV0A4L-22" value="" style="image;aspect=fixed;perimeter=ellipsePerimeter;html=1;align=center;shadow=0;dashed=0;spacingTop=3;image=img/lib/active_directory/server_farm.svg;" parent="1" vertex="1">
          <mxGeometry x="637.5" y="471" width="95" height="95" as="geometry" />
        </mxCell>
        <mxCell id="bnOTAv7IadEaedXV0A4L-23" value="&lt;font style=&quot;font-size: 13px;&quot;&gt;GRA: 3 Brokers&lt;/font&gt;" style="text;html=1;align=center;verticalAlign=middle;whiteSpace=wrap;rounded=0;" parent="1" vertex="1">
          <mxGeometry x="637.5" y="435" width="97.5" height="30" as="geometry" />
        </mxCell>
        <mxCell id="bnOTAv7IadEaedXV0A4L-30" value="" style="endArrow=classic;html=1;rounded=0;entryX=0.5;entryY=0;entryDx=0;entryDy=0;exitX=0;exitY=0.5;exitDx=0;exitDy=0;" parent="1" source="bnOTAv7IadEaedXV0A4L-3" target="bnOTAv7IadEaedXV0A4L-20" edge="1">
          <mxGeometry width="50" height="50" relative="1" as="geometry">
            <mxPoint x="370" y="270" as="sourcePoint" />
            <mxPoint x="320" y="320" as="targetPoint" />
            <Array as="points">
              <mxPoint x="216" y="290" />
            </Array>
          </mxGeometry>
        </mxCell>
        <mxCell id="bnOTAv7IadEaedXV0A4L-32" value="" style="endArrow=classic;html=1;rounded=0;entryX=0.5;entryY=0;entryDx=0;entryDy=0;exitX=1;exitY=0.5;exitDx=0;exitDy=0;" parent="1" source="bnOTAv7IadEaedXV0A4L-3" target="bnOTAv7IadEaedXV0A4L-23" edge="1">
          <mxGeometry width="50" height="50" relative="1" as="geometry">
            <mxPoint x="580" y="320" as="sourcePoint" />
            <mxPoint x="687" y="260" as="targetPoint" />
            <Array as="points">
              <mxPoint x="620" y="290" />
              <mxPoint x="690" y="290" />
            </Array>
          </mxGeometry>
        </mxCell>
        <mxCell id="bnOTAv7IadEaedXV0A4L-34" value="No of Brokers: 6&lt;br&gt;Topic Replication Factor: 2&lt;br&gt;Distributed across: 2 DC" style="ellipse;shape=cloud;whiteSpace=wrap;html=1;fillColor=#dae8fc;strokeColor=#6c8ebf;gradientColor=#7ea6e0;" parent="1" vertex="1">
          <mxGeometry x="110" y="170" width="240" height="120" as="geometry" />
        </mxCell>
      </root>
    </mxGraphModel>
  </diagram>
</mxfile>
